<?xml version="1.0" encoding="utf-8"?>
<!-- Generator: Adobe Illustrator 27.6.1, SVG Export Plug-In . SVG Version: 6.00 Build 0)  -->
<svg version="1.1" id="Layer_1" xmlns="http://www.w3.org/2000/svg" xmlns:xlink="http://www.w3.org/1999/xlink" x="0px" y="0px"
	 viewBox="0 0 850.39 850.39" style="enable-background:new 0 0 850.39 850.39;" xml:space="preserve">
<style type="text/css">
	.st0{fill:#00A591;}
	.st1{font-family:'YekanBakh-Bold';}
	.st2{font-size:153.0025px;}
</style>
<g>
	<text transform="matrix(1 0 0 1 166.3168 731.8585)" class="st0 st1 st2">Dosol.ir</text>
	<g>
		<path class="st0" d="M611.59,46.22c-3.13-5.07-10.94-2.83-10.94,3.12v36.15v70.39v190.38c0,52.13-41.47,95.5-93.59,96.25
			c-53.65,0.77-97.3-42.97-96.36-96.66c0.86-49.73,40.66-90.82,90.34-93.19c19.03-0.9,41.84,3.8,57.05,12.59V120.31
			c-29.8-17.83-68.84-29.54-105.7-33.19C318.78,73.9,194.47,224.9,181.25,358.52c-13.22,133.61,89.66,199.24,223.28,212.46
			c133.61,13.22,238.54-32.14,260.58-164.59C684.51,289.77,645.67,101.39,611.59,46.22z"/>
	</g>
</g>
</svg>
